<svg width="254" height="301" viewBox="0 0 254 301" fill="none" xmlns="http://www.w3.org/2000/svg">
<mask id="path-1-inside-1_28_62" fill="white">
<path fill-rule="evenodd" clip-rule="evenodd" d="M0 259.952C26.9397 285.4 63.2714 301 103.245 301C186.32 301 253.666 233.619 253.666 150.5C253.666 67.3811 186.32 0 103.245 0C63.2714 0 26.9397 15.6003 0 41.0478V259.952Z"/>
</mask>
<path fill-rule="evenodd" clip-rule="evenodd" d="M0 259.952C26.9397 285.4 63.2714 301 103.245 301C186.32 301 253.666 233.619 253.666 150.5C253.666 67.3811 186.32 0 103.245 0C63.2714 0 26.9397 15.6003 0 41.0478V259.952Z" fill="#D9D9D9"/>
<path d="M0 259.952H-11V264.693L-7.55355 267.949L0 259.952ZM0 41.0478L-7.55355 33.0513L-11 36.3069V41.0478H0ZM103.245 290C66.1912 290 32.5333 275.552 7.55355 251.956L-7.55355 267.949C21.3461 295.248 60.3515 312 103.245 312V290ZM242.666 150.5C242.666 227.549 180.24 290 103.245 290V312C192.401 312 264.666 239.689 264.666 150.5H242.666ZM103.245 11C180.24 11 242.666 73.4509 242.666 150.5H264.666C264.666 61.3114 192.401 -11 103.245 -11V11ZM7.55355 49.0443C32.5333 25.4482 66.1912 11 103.245 11V-11C60.3515 -11 21.3461 5.75243 -7.55355 33.0513L7.55355 49.0443ZM-11 41.0478V259.952H11V41.0478H-11Z" fill="white" mask="url(#path-1-inside-1_28_62)"/>
</svg>
